<svg width="24" height="25" viewBox="0 0 24 25" fill="none" xmlns="http://www.w3.org/2000/svg">
<path d="M7.8 2.95413H16.2C19.4 2.95413 22 5.55413 22 8.75413V17.1541C22 18.6924 21.3889 20.1676 20.3012 21.2554C19.2135 22.3431 17.7383 22.9541 16.2 22.9541H7.8C4.6 22.9541 2 20.3541 2 17.1541V8.75413C2 7.21588 2.61107 5.74062 3.69878 4.65291C4.78649 3.5652 6.26174 2.95413 7.8 2.95413ZM7.6 4.95413C6.64522 4.95413 5.72955 5.33342 5.05442 6.00855C4.37928 6.68368 4 7.59935 4 8.55413V17.3541C4 19.3441 5.61 20.9541 7.6 20.9541H16.4C17.3548 20.9541 18.2705 20.5748 18.9456 19.8997C19.6207 19.2246 20 18.3089 20 17.3541V8.55413C20 6.56413 18.39 4.95413 16.4 4.95413H7.6ZM17.25 6.45413C17.5815 6.45413 17.8995 6.58583 18.1339 6.82025C18.3683 7.05467 18.5 7.37261 18.5 7.70413C18.5 8.03565 18.3683 8.3536 18.1339 8.58802C17.8995 8.82244 17.5815 8.95413 17.25 8.95413C16.9185 8.95413 16.6005 8.82244 16.3661 8.58802C16.1317 8.3536 16 8.03565 16 7.70413C16 7.37261 16.1317 7.05467 16.3661 6.82025C16.6005 6.58583 16.9185 6.45413 17.25 6.45413ZM12 7.95413C13.3261 7.95413 14.5979 8.48092 15.5355 9.4186C16.4732 10.3563 17 11.628 17 12.9541C17 14.2802 16.4732 15.552 15.5355 16.4897C14.5979 17.4273 13.3261 17.9541 12 17.9541C10.6739 17.9541 9.40215 17.4273 8.46447 16.4897C7.52678 15.552 7 14.2802 7 12.9541C7 11.628 7.52678 10.3563 8.46447 9.4186C9.40215 8.48092 10.6739 7.95413 12 7.95413ZM12 9.95413C11.2044 9.95413 10.4413 10.2702 9.87868 10.8328C9.31607 11.3954 9 12.1585 9 12.9541C9 13.7498 9.31607 14.5128 9.87868 15.0755C10.4413 15.6381 11.2044 15.9541 12 15.9541C12.7956 15.9541 13.5587 15.6381 14.1213 15.0755C14.6839 14.5128 15 13.7498 15 12.9541C15 12.1585 14.6839 11.3954 14.1213 10.8328C13.5587 10.2702 12.7956 9.95413 12 9.95413Z" fill="#F8F8F8"/>
</svg>
